<?xml version="1.0"?>
<svg xmlns="http://www.w3.org/2000/svg" xmlns:xlink="http://www.w3.org/1999/xlink" xmlns:svgjs="http://svgjs.com/svgjs" version="1.1" width="512" height="512" x="0" y="0" viewBox="0 0 512 512" style="enable-background:new 0 0 512 512" xml:space="preserve" class=""><g>
<path xmlns="http://www.w3.org/2000/svg" style="" d="M256,0c141.384,0,256,114.616,256,256S397.384,512,256,512c0-11.13-33.391-256-33.391-256L256,0z" fill="#f0f0f0" data-original="#f0f0f0" class=""/>
<path xmlns="http://www.w3.org/2000/svg" style="" d="M256,512C114.616,512,0,397.384,0,256S114.616,0,256,0" fill="#016332" data-original="#496e2d" class=""/>
<g xmlns="http://www.w3.org/2000/svg">
	<polygon style="" points="311.003,206.896 289.999,235.841 255.982,224.809 277.02,253.729 256.018,282.674    290.022,271.603 311.06,300.522 311.038,264.761 345.043,253.689 311.027,242.659  " fill="#d80027" data-original="#d80027" class=""/>
	<path style="" d="M277.237,328.348c-39.956,0-72.348-32.392-72.348-72.348s32.392-72.348,72.348-72.348   c12.458,0,24.181,3.15,34.415,8.696c-16.056-15.701-38.012-25.392-62.241-25.392c-49.178,0-89.043,39.866-89.043,89.043   s39.866,89.043,89.043,89.043c24.23,0,46.186-9.691,62.241-25.392C301.418,325.198,289.695,328.348,277.237,328.348z" fill="#d80027" data-original="#d80027" class=""/>
</g>
<g xmlns="http://www.w3.org/2000/svg">
</g>
<g xmlns="http://www.w3.org/2000/svg">
</g>
<g xmlns="http://www.w3.org/2000/svg">
</g>
<g xmlns="http://www.w3.org/2000/svg">
</g>
<g xmlns="http://www.w3.org/2000/svg">
</g>
<g xmlns="http://www.w3.org/2000/svg">
</g>
<g xmlns="http://www.w3.org/2000/svg">
</g>
<g xmlns="http://www.w3.org/2000/svg">
</g>
<g xmlns="http://www.w3.org/2000/svg">
</g>
<g xmlns="http://www.w3.org/2000/svg">
</g>
<g xmlns="http://www.w3.org/2000/svg">
</g>
<g xmlns="http://www.w3.org/2000/svg">
</g>
<g xmlns="http://www.w3.org/2000/svg">
</g>
<g xmlns="http://www.w3.org/2000/svg">
</g>
<g xmlns="http://www.w3.org/2000/svg">
</g>
</g></svg>
